<svg width="259" height="86" viewBox="0 0 259 86" fill="none" xmlns="http://www.w3.org/2000/svg">
<g filter="url(#filter0_d_602_1313)">
<path d="M69.8945 39.01C69.8945 44.3687 68.9161 49.3336 66.8701 54.0144C64.7226 58.7885 61.9904 62.8806 58.4748 66.4815C54.9632 69.989 50.7655 72.8145 45.9833 74.8606C41.2985 76.9066 36.224 77.9784 30.8571 77.9784H4.89581L17.8744 64.9226H30.8571C34.4702 64.9226 37.8843 64.2406 41.0062 62.974C44.1321 61.6099 46.9617 59.7588 49.3041 57.323C51.6465 54.8872 53.4977 52.1591 54.8658 49.0413C56.2339 45.8261 56.9159 42.5135 56.9159 39.0059C56.9159 35.4984 56.2339 32.1858 54.8658 28.9705C53.4977 25.8527 51.6465 23.1247 49.2066 20.693C46.8602 18.3546 44.0347 16.406 40.9088 15.042C37.7869 13.7713 34.3687 13.0933 30.8571 13.0933H17.8744L4.89581 0.041626H30.8571C36.224 0.041626 41.2011 1.11337 45.9833 3.15942C50.6681 5.20547 54.8658 8.03097 58.3773 11.5385C61.9904 15.1434 64.7226 19.2355 66.8701 24.0056C68.9161 28.6823 69.8945 33.6513 69.8945 39.01Z" fill="#FDF8F2"/>
<path d="M102.587 50.0197L118.594 77.9784H103.662L81.0179 38.9126L92.6325 39.01C96.1441 39.01 99.1725 37.7434 101.706 35.2102C104.345 32.677 105.611 29.5592 105.611 25.9583C105.611 22.4508 104.34 19.4304 101.706 16.8972C99.1685 14.3599 96.1441 13.0974 92.6325 13.0974H66.5737L65.1082 11.6359L58.3773 0.041626H92.6325C99.7571 0.041626 105.907 2.57483 110.978 7.64125C116.052 12.8051 118.594 18.8458 118.594 25.9583C118.594 31.4144 117.128 36.2819 114.006 40.6663C110.978 45.0507 107.174 48.1685 102.587 50.0197Z" fill="#F27507"/>
<path d="M130.089 29.6467H135.927C141.075 29.6467 143.62 26.4111 143.62 21.5761C143.62 16.7533 141.075 13.5178 135.927 13.5178H130.089V29.6467ZM133.438 26.6872V16.4651H135.761C138.728 16.4651 140.092 18.3162 140.092 21.5761C140.092 24.836 138.728 26.6872 135.761 26.6872H133.438Z" fill="#FDF8F2"/>
<path d="M151.327 29.6467H154.676V13.5178H151.327V29.6467Z" fill="#FDF8F2"/>
<path d="M170.39 29.8699C172.854 29.8699 174.596 28.9444 175.635 27.4139V29.6467H178.27V20.8819H170.691V23.5735H175.099C174.641 25.928 172.745 26.9551 170.678 26.9551C167.634 26.9551 165.669 24.836 165.669 21.5437C165.669 18.1254 167.768 16.2052 170.557 16.2052C172.355 16.2052 173.873 17.0009 174.787 18.6288L177.657 17.0902C176.248 14.6666 173.67 13.2945 170.557 13.2945C165.811 13.2945 162.307 16.5178 162.307 21.6208C162.307 26.6547 165.734 29.8699 170.39 29.8699Z" fill="#FDF8F2"/>
<path d="M186.312 29.6467H189.662V13.5178H186.312V29.6467Z" fill="#FDF8F2"/>
<path d="M207.751 13.5178H196.757V16.4651H200.61V29.6467H203.922V16.4651H207.751V13.5178Z" fill="#FDF8F2"/>
<path d="M225.652 29.6467H229.078L223.139 13.5178H219.043L213.104 29.6467H216.534L217.703 26.3218H224.479L225.652 29.6467ZM218.686 23.5166L221.097 16.6762L223.496 23.5166H218.686Z" fill="#FDF8F2"/>
<path d="M239.422 26.6872V13.5178H236.073V29.6467H244.48V26.6872H239.422Z" fill="#FDF8F2"/>
<path d="M135.257 63.163H139.219L134.924 56.8989C135.314 56.7893 135.647 56.6554 135.951 56.4889C137.579 55.6283 138.237 54.0207 138.237 51.999C138.237 50.0788 137.591 48.5524 136.016 47.712C135.18 47.2898 134.096 47.034 132.042 47.034H126.74V63.163H130.089V57.2115H131.506L135.257 63.163ZM130.089 49.8352H131.575C132.87 49.8352 133.593 49.9123 134.108 50.3021C134.587 50.6837 134.867 51.3088 134.867 52.2141C134.867 53.16 134.587 53.7974 134.039 54.179C133.552 54.5241 132.846 54.5768 131.575 54.5768H130.089V49.8352Z" fill="#FDF8F2"/>
<path d="M155.835 49.9813V47.034H146.482V63.163H155.835V60.2035H149.856V56.5539H155.157V53.6431H149.856V49.9813H155.835Z" fill="#FDF8F2"/>
<path d="M171.002 63.3862C174.595 63.3862 177.478 61.5351 178.626 58.4741L175.501 57.3374C174.786 59.213 173.077 60.305 171.002 60.305C168.222 60.305 166.09 58.3523 166.09 55.0924C166.09 51.8325 168.222 49.892 171.002 49.892C173.077 49.892 174.786 50.9719 175.501 52.8475L178.626 51.7108C177.478 48.6498 174.595 46.8108 171.002 46.8108C166.257 46.8108 162.753 50.026 162.753 55.0924C162.753 60.1588 166.257 63.3862 171.002 63.3862Z" fill="#FDF8F2"/>
<path d="M194.461 63.163H198.423L194.128 56.8989C194.517 56.7893 194.85 56.6554 195.155 56.4889C196.783 55.6283 197.44 54.0207 197.44 51.999C197.44 50.0788 196.795 48.5524 195.22 47.712C194.383 47.2898 193.3 47.034 191.245 47.034H185.943V63.163H189.293V57.2115H190.709L194.461 63.163ZM189.293 49.8352H190.778C192.073 49.8352 192.796 49.9123 193.312 50.3021C193.791 50.6837 194.071 51.3088 194.071 52.2141C194.071 53.16 193.791 53.7974 193.243 54.179C192.756 54.5241 192.049 54.5768 190.778 54.5768H189.293V49.8352Z" fill="#FDF8F2"/>
<path d="M211.657 63.3862C215.209 63.3862 217.986 61.5797 217.986 57.516V47.034H214.637V57.0573C214.637 59.5012 213.322 60.4268 211.657 60.4268C210.005 60.4268 208.702 59.5133 208.702 57.0573V47.034H205.352V57.516C205.352 61.5797 208.121 63.3862 211.657 63.3862Z" fill="#FDF8F2"/>
<path d="M226.398 63.163H229.748V47.034H226.398V63.163Z" fill="#FDF8F2"/>
<path d="M247.837 47.034H236.843V49.9813H240.696V63.163H244.008V49.9813H247.837V47.034Z" fill="#FDF8F2"/>
</g>
<defs>
<filter id="filter0_d_602_1313" x="0.895813" y="0.041626" width="258" height="85.9368" filterUnits="userSpaceOnUse" color-interpolation-filters="sRGB">
<feFlood flood-opacity="0" result="BackgroundImageFix"/>
<feColorMatrix in="SourceAlpha" type="matrix" values="0 0 0 0 0 0 0 0 0 0 0 0 0 0 0 0 0 0 127 0" result="hardAlpha"/>
<feOffset dy="4"/>
<feGaussianBlur stdDeviation="2"/>
<feComposite in2="hardAlpha" operator="out"/>
<feColorMatrix type="matrix" values="0 0 0 0 0 0 0 0 0 0 0 0 0 0 0 0 0 0 0.25 0"/>
<feBlend mode="normal" in2="BackgroundImageFix" result="effect1_dropShadow_602_1313"/>
<feBlend mode="normal" in="SourceGraphic" in2="effect1_dropShadow_602_1313" result="shape"/>
</filter>
</defs>
</svg>
